<svg width="132" height="24" viewBox="0 0 132 24" fill="none" xmlns="http://www.w3.org/2000/svg">
<g clip-path="url(#clip0_74_21710)">
<path d="M1.34153 3.55188C1.34153 3.55188 0 3.79008 0 4.89639V12.9582C0 17.267 6.47248 22.0628 8.66916 23.492C9.10743 23.7778 9.67397 23.7778 10.1122 23.492C12.3143 22.0681 18.7814 17.2723 18.7814 12.9582V4.89639C18.7814 3.79008 17.4399 3.55188 17.4399 3.55188L10.1871 1.31808C9.66863 1.15927 9.11277 1.15927 8.59434 1.31808L1.34153 3.55188Z" fill="#E7EFFD"/>
<path d="M2.97186 2.60961C2.97186 2.60961 3.01461 2.59902 3.04134 2.59373L10.2941 0.359929C10.7003 0.232888 11.1386 0.232888 11.5448 0.359929L18.7976 2.59373C18.7976 2.59373 18.8404 2.60432 18.8671 2.60961C18.8671 2.60961 18.8778 2.60961 18.8938 2.6149C18.9205 2.6202 18.958 2.63078 19.0061 2.64666C19.1023 2.67842 19.2252 2.72606 19.3481 2.79488C19.5833 2.93251 19.7383 3.11248 19.7383 3.38774V11.4495C19.7383 12.3865 19.3855 13.3922 18.7709 14.4244C18.1616 15.4513 17.3171 16.4624 16.3925 17.3993C14.5379 19.2784 12.4053 20.8082 11.331 21.5016C11.0852 21.6604 10.7698 21.6604 10.524 21.5016C9.44433 20.8029 7.31713 19.2731 5.4625 17.394C4.53786 16.4571 3.6934 15.446 3.0841 14.4191C2.4748 13.3922 2.1167 12.3865 2.1167 11.4442V3.38774C2.1167 3.11248 2.26635 2.93251 2.50686 2.79488C2.62445 2.72606 2.74738 2.67842 2.84893 2.64666C2.89703 2.63078 2.93444 2.6202 2.96117 2.6149C2.97186 2.6149 2.98255 2.6149 2.98789 2.60961H2.97186Z" stroke="#0046C7" stroke-width="0.5"/>
<path d="M6.26391 8.30005H5.72409L6.26391 9.55987L5.78823 10.6503L4.77273 8.30005H4.23291L5.62254 11.5396H5.95926L6.53649 10.2057L7.11372 11.5396H7.45044L8.84007 8.30005H8.30025L7.28475 10.6715L6.26925 8.30005H6.26391Z" fill="#0046C7"/>
<path d="M11.4055 8.30005L10.4755 9.93041L9.54549 8.30005H8.96826L10.2403 10.5074V11.5237H10.732V10.5074L11.9827 8.30005H11.4055Z" fill="#0046C7"/>
<path d="M15.0132 11.5396H17.584V10.9838H15.0132V11.5396Z" fill="#0046C7"/>
<path d="M15.0132 8.85585H17.584V8.30005H15.0132V8.85585Z" fill="#0046C7"/>
<path d="M15.0132 10.1898H17.584V9.63403H15.0132V10.1898Z" fill="#0046C7"/>
<path d="M12.1323 8.30005V8.83997H13.8266L11.9292 11.5449H14.6871V11.0103H12.9447L14.8581 8.30534H12.1323V8.30005Z" fill="#0046C7"/>
</g>
<path d="M29.352 16.0758C27.6667 16.0758 26.2747 15.5158 25.176 14.3958C24.0773 13.2758 23.528 11.8945 23.528 10.2518C23.528 8.59847 24.0773 7.21714 25.176 6.10781C26.2747 4.98781 27.6667 4.42781 29.352 4.42781C30.3653 4.42781 31.2987 4.66781 32.152 5.14781C33.016 5.61714 33.688 6.25714 34.168 7.06781L32.264 8.17181C31.9867 7.67047 31.592 7.28114 31.08 7.00381C30.568 6.71581 29.992 6.57181 29.352 6.57181C28.264 6.57181 27.384 6.91314 26.712 7.59581C26.0507 8.27847 25.72 9.16381 25.72 10.2518C25.72 11.3291 26.0507 12.2091 26.712 12.8918C27.384 13.5745 28.264 13.9158 29.352 13.9158C29.992 13.9158 30.568 13.7771 31.08 13.4998C31.6027 13.2118 31.9973 12.8225 32.264 12.3318L34.168 13.4358C33.688 14.2465 33.0213 14.8918 32.168 15.3718C31.3147 15.8411 30.376 16.0758 29.352 16.0758ZM41.5233 7.85181H43.5873V15.8518H41.5233V14.9078C40.9046 15.6865 40.0353 16.0758 38.9153 16.0758C37.8486 16.0758 36.9313 15.6705 36.1633 14.8598C35.4059 14.0385 35.0273 13.0358 35.0273 11.8518C35.0273 10.6678 35.4059 9.67047 36.1633 8.85981C36.9313 8.03847 37.8486 7.62781 38.9153 7.62781C40.0353 7.62781 40.9046 8.01714 41.5233 8.79581V7.85181ZM37.7153 13.4838C38.1313 13.8998 38.6593 14.1078 39.2993 14.1078C39.9393 14.1078 40.4673 13.8998 40.8833 13.4838C41.3099 13.0571 41.5233 12.5131 41.5233 11.8518C41.5233 11.1905 41.3099 10.6518 40.8833 10.2358C40.4673 9.80914 39.9393 9.59581 39.2993 9.59581C38.6593 9.59581 38.1313 9.80914 37.7153 10.2358C37.2993 10.6518 37.0913 11.1905 37.0913 11.8518C37.0913 12.5131 37.2993 13.0571 37.7153 13.4838ZM54.2749 7.62781C55.1922 7.62781 55.9229 7.92647 56.4669 8.52381C57.0215 9.12114 57.2989 9.92114 57.2989 10.9238V15.8518H55.2349V11.0678C55.2349 10.5878 55.1175 10.2145 54.8829 9.94781C54.6482 9.68114 54.3175 9.54781 53.8909 9.54781C53.4215 9.54781 53.0535 9.70247 52.7869 10.0118C52.5309 10.3211 52.4029 10.7691 52.4029 11.3558V15.8518H50.3389V11.0678C50.3389 10.5878 50.2215 10.2145 49.9869 9.94781C49.7522 9.68114 49.4215 9.54781 48.9949 9.54781C48.5362 9.54781 48.1682 9.70247 47.8909 10.0118C47.6242 10.3211 47.4909 10.7691 47.4909 11.3558V15.8518H45.4269V7.85181H47.4909V8.69981C47.9709 7.98514 48.7122 7.62781 49.7149 7.62781C50.6962 7.62781 51.4215 8.01181 51.8909 8.77981C52.4242 8.01181 53.2189 7.62781 54.2749 7.62781Z" fill="black"/>
<path d="M67.2599 16.0758C66.0119 16.0758 64.9879 15.7238 64.1879 15.0198C63.3879 14.3158 62.9879 13.3718 62.9879 12.1878V4.65181H65.1799V12.0118C65.1799 12.5985 65.3452 13.0625 65.6759 13.4038C66.0172 13.7451 66.5452 13.9158 67.2599 13.9158C67.9745 13.9158 68.4972 13.7451 68.8279 13.4038C69.1692 13.0625 69.3399 12.5985 69.3399 12.0118V4.65181H71.5479V12.1878C71.5479 13.3718 71.1479 14.3158 70.3479 15.0198C69.5479 15.7238 68.5185 16.0758 67.2599 16.0758ZM77.857 7.62781C78.7317 7.62781 79.4517 7.92114 80.017 8.50781C80.593 9.09447 80.881 9.90514 80.881 10.9398V15.8518H78.817V11.1958C78.817 10.6625 78.673 10.2571 78.385 9.97981C78.097 9.69181 77.713 9.54781 77.233 9.54781C76.6997 9.54781 76.273 9.71314 75.953 10.0438C75.633 10.3745 75.473 10.8705 75.473 11.5318V15.8518H73.409V7.85181H75.473V8.74781C75.9743 8.00114 76.769 7.62781 77.857 7.62781ZM82.6114 15.8518V4.17181H84.6754V15.8518H82.6114ZM87.5565 6.89181C87.2152 6.89181 86.9165 6.76914 86.6605 6.52381C86.4152 6.26781 86.2925 5.96914 86.2925 5.62781C86.2925 5.28647 86.4152 4.98781 86.6605 4.73181C86.9165 4.47581 87.2152 4.34781 87.5565 4.34781C87.9085 4.34781 88.2072 4.47581 88.4525 4.73181C88.7085 4.98781 88.8365 5.28647 88.8365 5.62781C88.8365 5.96914 88.7085 6.26781 88.4525 6.52381C88.2072 6.76914 87.9085 6.89181 87.5565 6.89181ZM86.5325 15.8518V7.85181H88.5965V15.8518H86.5325ZM99.3016 7.62781C100.219 7.62781 100.95 7.92647 101.494 8.52381C102.048 9.12114 102.326 9.92114 102.326 10.9238V15.8518H100.262V11.0678C100.262 10.5878 100.144 10.2145 99.9096 9.94781C99.675 9.68114 99.3443 9.54781 98.9176 9.54781C98.4483 9.54781 98.0803 9.70247 97.8136 10.0118C97.5576 10.3211 97.4296 10.7691 97.4296 11.3558V15.8518H95.3656V11.0678C95.3656 10.5878 95.2483 10.2145 95.0136 9.94781C94.779 9.68114 94.4483 9.54781 94.0216 9.54781C93.563 9.54781 93.195 9.70247 92.9176 10.0118C92.651 10.3211 92.5176 10.7691 92.5176 11.3558V15.8518H90.4536V7.85181H92.5176V8.69981C92.9976 7.98514 93.739 7.62781 94.7416 7.62781C95.723 7.62781 96.4483 8.01181 96.9176 8.77981C97.451 8.01181 98.2456 7.62781 99.3016 7.62781ZM105.071 6.89181C104.729 6.89181 104.431 6.76914 104.175 6.52381C103.929 6.26781 103.807 5.96914 103.807 5.62781C103.807 5.28647 103.929 4.98781 104.175 4.73181C104.431 4.47581 104.729 4.34781 105.071 4.34781C105.423 4.34781 105.721 4.47581 105.967 4.73181C106.223 4.98781 106.351 5.28647 106.351 5.62781C106.351 5.96914 106.223 6.26781 105.967 6.52381C105.721 6.76914 105.423 6.89181 105.071 6.89181ZM104.047 15.8518V7.85181H106.111V15.8518H104.047ZM112.544 9.83581H110.736V13.1638C110.736 13.4411 110.805 13.6438 110.944 13.7718C111.082 13.8998 111.285 13.9745 111.552 13.9958C111.818 14.0065 112.149 14.0011 112.544 13.9798V15.8518C111.125 16.0118 110.122 15.8785 109.536 15.4518C108.96 15.0251 108.672 14.2625 108.672 13.1638V9.83581H107.28V7.85181H108.672V6.23581L110.736 5.61181V7.85181H112.544V9.83581ZM115.461 12.6998C115.738 13.7025 116.49 14.2038 117.717 14.2038C118.506 14.2038 119.104 13.9371 119.509 13.4038L121.173 14.3638C120.384 15.5051 119.221 16.0758 117.685 16.0758C116.362 16.0758 115.301 15.6758 114.501 14.8758C113.701 14.0758 113.301 13.0678 113.301 11.8518C113.301 10.6465 113.696 9.64381 114.485 8.84381C115.274 8.03314 116.288 7.62781 117.525 7.62781C118.698 7.62781 119.664 8.03314 120.421 8.84381C121.189 9.65447 121.573 10.6571 121.573 11.8518C121.573 12.1185 121.546 12.4011 121.493 12.6998H115.461ZM115.429 11.0998H119.509C119.392 10.5558 119.146 10.1505 118.773 9.88381C118.41 9.61714 117.994 9.48381 117.525 9.48381C116.97 9.48381 116.512 9.62781 116.149 9.91581C115.786 10.1931 115.546 10.5878 115.429 11.0998ZM128.983 4.65181H131.047V15.8518H128.983V14.9078C128.375 15.6865 127.511 16.0758 126.391 16.0758C125.314 16.0758 124.391 15.6705 123.623 14.8598C122.866 14.0385 122.487 13.0358 122.487 11.8518C122.487 10.6678 122.866 9.67047 123.623 8.85981C124.391 8.03847 125.314 7.62781 126.391 7.62781C127.511 7.62781 128.375 8.01714 128.983 8.79581V4.65181ZM125.175 13.4838C125.602 13.8998 126.135 14.1078 126.775 14.1078C127.415 14.1078 127.943 13.8998 128.359 13.4838C128.775 13.0571 128.983 12.5131 128.983 11.8518C128.983 11.1905 128.775 10.6518 128.359 10.2358C127.943 9.80914 127.415 9.59581 126.775 9.59581C126.135 9.59581 125.602 9.80914 125.175 10.2358C124.759 10.6518 124.551 11.1905 124.551 11.8518C124.551 12.5131 124.759 13.0571 125.175 13.4838Z" fill="#4E2FD2"/>
<defs>
<clipPath id="clip0_74_21710">
<rect width="20" height="23.7037" fill="white"/>
</clipPath>
</defs>
</svg>
